<mxfile host="www.draw.io" modified="2020-03-10T10:12:56.710Z" agent="Mozilla/5.0 (Windows NT 6.1; WOW64) AppleWebKit/537.36 (KHTML, like Gecko) Chrome/80.0.3987.87 Safari/537.36" etag="4WxwcKK6Hwrtv_TqacHZ" version="12.8.2" type="github">
  <diagram id="prtHgNgQTEPvFCAcTncT" name="Page-1">
    <mxGraphModel dx="3022" dy="1562" grid="0" gridSize="10" guides="1" tooltips="1" connect="1" arrows="1" fold="1" page="0" pageScale="1" pageWidth="827" pageHeight="1169" math="0" shadow="0">
      <root>
        <mxCell id="0" />
        <mxCell id="1" parent="0" />
        <mxCell id="9WE2LjUBCUQwaZqSCd7z-7" value="&lt;table border=&quot;1&quot; width=&quot;100%&quot; cellpadding=&quot;4&quot; style=&quot;width: 100% ; height: 100% ; border-collapse: collapse&quot;&gt;&lt;tbody&gt;&lt;tr&gt;&lt;th align=&quot;center&quot;&gt;&lt;b&gt;小程序&lt;/b&gt;&lt;/th&gt;&lt;/tr&gt;&lt;tr&gt;&lt;td align=&quot;center&quot;&gt;客户管理&lt;br&gt;客户列表&lt;br&gt;新增客户&lt;/td&gt;&lt;/tr&gt;&lt;tr&gt;&lt;td align=&quot;center&quot;&gt;拜访管理&lt;br&gt;拜访日志&lt;br&gt;新增拜访&lt;/td&gt;&lt;/tr&gt;&lt;/tbody&gt;&lt;/table&gt;" style="text;html=1;strokeColor=none;fillColor=none;overflow=fill;rounded=0;glass=0;comic=0;shadow=0;jiggle=4.5;spacing=4;part=1;editable=0;treeFolding=0;treeMoving=0;resizeHeight=0;backgroundOutline=0;collapsible=0;container=0;snapToPoint=0;portConstraintRotation=0;noLabel=0;" parent="1" vertex="1">
          <mxGeometry x="-84" y="296" width="78" height="140" as="geometry" />
        </mxCell>
        <mxCell id="9WE2LjUBCUQwaZqSCd7z-20" value="" style="rounded=0;whiteSpace=wrap;html=1;shadow=0;labelBackgroundColor=none;strokeColor=none;strokeWidth=3;fillColor=#e8edf0;fontSize=60;fontColor=#2F5B7C;align=left;" parent="1" vertex="1">
          <mxGeometry x="20" y="538" width="2250" height="1598" as="geometry" />
        </mxCell>
        <mxCell id="9WE2LjUBCUQwaZqSCd7z-21" value="&lt;div style=&quot;font-size: 26px&quot;&gt;&lt;font style=&quot;font-size: 26px&quot;&gt;Customer Relationships&lt;/font&gt;&lt;/div&gt;&lt;div&gt;&lt;br&gt;&lt;/div&gt;&lt;div&gt;What type of relationship does each of our Customer&lt;/div&gt;&lt;div&gt;Segments expect us to establish and maintain with them?&lt;/div&gt;&lt;div&gt;Which ones have we established?&lt;/div&gt;&lt;div&gt;How are they integrated with the rest of our business model?&lt;/div&gt;&lt;div&gt;How costly are they?&lt;/div&gt;&lt;div&gt;&lt;br&gt;&lt;/div&gt;&lt;div style=&quot;font-size: 10px&quot;&gt;&lt;font style=&quot;font-size: 10px&quot;&gt;&lt;b&gt;Examples&lt;/b&gt;&lt;/font&gt;&lt;/div&gt;&lt;div style=&quot;font-size: 10px&quot;&gt;&lt;font style=&quot;font-size: 10px&quot;&gt;Personal assistance&lt;/font&gt;&lt;/div&gt;&lt;div style=&quot;font-size: 10px&quot;&gt;&lt;font style=&quot;font-size: 10px&quot;&gt;Dedicated Personal Assistance&lt;/font&gt;&lt;/div&gt;&lt;div style=&quot;font-size: 10px&quot;&gt;&lt;font style=&quot;font-size: 10px&quot;&gt;Self-Service&lt;/font&gt;&lt;/div&gt;&lt;div style=&quot;font-size: 10px&quot;&gt;&lt;font style=&quot;font-size: 10px&quot;&gt;Automated Services&lt;/font&gt;&lt;/div&gt;&lt;div style=&quot;font-size: 10px&quot;&gt;&lt;font style=&quot;font-size: 10px&quot;&gt;Communities&lt;/font&gt;&lt;/div&gt;&lt;div style=&quot;font-size: 10px&quot;&gt;&lt;font style=&quot;font-size: 10px&quot;&gt;Co-creation&lt;/font&gt;&lt;/div&gt;" style="rounded=0;whiteSpace=wrap;html=1;shadow=0;labelBackgroundColor=none;strokeColor=#e8edf0;strokeWidth=5;fillColor=#ffffff;fontSize=12;fontColor=#2F5B7C;align=left;verticalAlign=top;spacing=30;" parent="1" vertex="1">
          <mxGeometry x="1360" y="726" width="420" height="450" as="geometry" />
        </mxCell>
        <mxCell id="9WE2LjUBCUQwaZqSCd7z-22" value="&lt;font&gt;&lt;span style=&quot;font-size: 26px&quot;&gt;小程序&lt;/span&gt;&lt;/font&gt;&lt;font style=&quot;font-size: 12px&quot;&gt;&lt;font style=&quot;font-size: 12px&quot;&gt;&lt;br style=&quot;font-size: 12px&quot;&gt;&lt;/font&gt;&lt;br style=&quot;font-size: 12px&quot;&gt;&lt;/font&gt;&lt;div style=&quot;font-size: 10px&quot;&gt;&lt;b&gt;客户管理&lt;/b&gt;&lt;/div&gt;&lt;div style=&quot;font-size: 10px&quot;&gt;&lt;font style=&quot;font-size: 10px&quot;&gt;1.客户列表&lt;/font&gt;&lt;/div&gt;&lt;div style=&quot;font-size: 10px&quot;&gt;&lt;font style=&quot;font-size: 10px&quot;&gt;2.客户信息&lt;/font&gt;&lt;/div&gt;&lt;div style=&quot;font-size: 10px&quot;&gt;&lt;font style=&quot;font-size: 10px&quot;&gt;&amp;nbsp; &amp;nbsp; 2.1 拜访记录&lt;/font&gt;&lt;/div&gt;&lt;div style=&quot;font-size: 10px&quot;&gt;&lt;font style=&quot;font-size: 10px&quot;&gt;&amp;nbsp; &amp;nbsp; 2.2 定单记录&amp;nbsp;&lt;/font&gt;&lt;/div&gt;&lt;div style=&quot;font-size: 10px&quot;&gt;&lt;font style=&quot;font-size: 10px&quot;&gt;2.新增客户&lt;/font&gt;&lt;/div&gt;&lt;div style=&quot;font-size: 10px&quot;&gt;3.修改客户[?]&lt;/div&gt;&lt;div style=&quot;font-size: 10px&quot;&gt;4.删除客户[?]&lt;/div&gt;&lt;div style=&quot;font-size: 10px&quot;&gt;&lt;br&gt;&lt;/div&gt;&lt;div style=&quot;font-size: 10px&quot;&gt;&lt;b&gt;统计报表&lt;/b&gt;&lt;/div&gt;&lt;div style=&quot;font-size: 10px&quot;&gt;1. 用户增长趋势&lt;/div&gt;&lt;div style=&quot;font-size: 10px&quot;&gt;2. 定单增长趋势&lt;/div&gt;&lt;div style=&quot;font-size: 10px&quot;&gt;3. 年化信息&lt;/div&gt;&lt;div style=&quot;font-size: 10px&quot;&gt;4.&amp;nbsp;拜访记录趋势&lt;/div&gt;&lt;div style=&quot;font-size: 10px&quot;&gt;&lt;br&gt;&lt;/div&gt;&lt;div style=&quot;font-size: 10px&quot;&gt;&lt;b&gt;拜访管理&lt;/b&gt;&lt;/div&gt;&lt;div style=&quot;font-size: 10px&quot;&gt;1.拜访记录&lt;/div&gt;&lt;div style=&quot;font-size: 10px&quot;&gt;2.新增拜访&lt;/div&gt;&lt;div style=&quot;font-size: 10px&quot;&gt;3.修改拜访[?]&lt;/div&gt;&lt;div style=&quot;font-size: 10px&quot;&gt;4.删除拜访[?]&lt;/div&gt;&lt;div style=&quot;font-size: 10px&quot;&gt;5.重点客户拜访问预警&lt;/div&gt;&lt;div style=&quot;font-size: 10px&quot;&gt;&lt;br&gt;&lt;/div&gt;&lt;div style=&quot;font-size: 10px&quot;&gt;&lt;b&gt;定单管理&lt;/b&gt;&lt;/div&gt;&lt;div style=&quot;font-size: 10px&quot;&gt;1.定单列表&lt;/div&gt;&lt;div style=&quot;font-size: 10px&quot;&gt;2.新增定单&lt;/div&gt;&lt;div style=&quot;font-size: 10px&quot;&gt;&lt;div&gt;3.修改定单[?]&lt;/div&gt;&lt;div&gt;4.删除定单[?]&lt;/div&gt;&lt;/div&gt;&lt;div style=&quot;font-size: 10px&quot;&gt;&lt;br&gt;&lt;/div&gt;&lt;div style=&quot;font-size: 12px&quot;&gt;&lt;b&gt;审批事件&lt;/b&gt;&lt;/div&gt;&lt;div style=&quot;font-size: 12px&quot;&gt;1.用户审批&lt;/div&gt;&lt;div style=&quot;font-size: 12px&quot;&gt;2.定单审批&lt;/div&gt;" style="rounded=0;whiteSpace=wrap;html=1;shadow=0;labelBackgroundColor=none;strokeColor=#e8edf0;strokeWidth=5;fillColor=#ffffff;fontSize=12;fontColor=#2F5B7C;align=left;verticalAlign=top;spacing=30;" parent="1" vertex="1">
          <mxGeometry x="100" y="726" width="348" height="900" as="geometry" />
        </mxCell>
        <mxCell id="9WE2LjUBCUQwaZqSCd7z-23" value="&lt;font&gt;&lt;span style=&quot;font-size: 26px&quot;&gt;后台管理&lt;/span&gt;&lt;br style=&quot;font-size: 12px&quot;&gt;&lt;/font&gt;&lt;font&gt;&lt;br style=&quot;font-size: 12px&quot;&gt;&lt;div&gt;&lt;div style=&quot;font-size: 10px&quot;&gt;&lt;b&gt;主体管理&lt;/b&gt;&lt;/div&gt;&lt;div style=&quot;font-size: 10px&quot;&gt;1.主体信息列表&lt;/div&gt;&lt;div style=&quot;font-size: 10px&quot;&gt;2.新增主体&lt;/div&gt;&lt;div style=&quot;font-size: 10px&quot;&gt;3.修改主体&lt;/div&gt;&lt;div style=&quot;font-size: 10px&quot;&gt;4.删除主体[?]&lt;/div&gt;&lt;/div&gt;&lt;div style=&quot;font-size: 10px&quot;&gt;5.主体详情&lt;/div&gt;&lt;div&gt;&lt;br&gt;&lt;/div&gt;&lt;div&gt;&lt;div style=&quot;font-size: 10px&quot;&gt;&lt;b&gt;产品管理&lt;/b&gt;&lt;/div&gt;&lt;div style=&quot;font-size: 10px&quot;&gt;1.产品列表&lt;/div&gt;&lt;div style=&quot;font-size: 10px&quot;&gt;2.创建产品&lt;/div&gt;&lt;div style=&quot;font-size: 10px&quot;&gt;3.修改产品&lt;/div&gt;&lt;div style=&quot;font-size: 10px&quot;&gt;4.删除产口[?]&lt;/div&gt;&lt;/div&gt;&lt;div&gt;5.产品详情&lt;/div&gt;6.Excel&lt;span&gt;批量导入&lt;/span&gt;&lt;br&gt;&lt;div&gt;7.导出Excel&lt;/div&gt;&lt;div&gt;&lt;br&gt;&lt;/div&gt;&lt;div&gt;&lt;div&gt;&lt;div style=&quot;font-size: 10px&quot;&gt;&lt;b&gt;客户管理&lt;/b&gt;&lt;/div&gt;&lt;div style=&quot;font-size: 10px&quot;&gt;1.客户列表&lt;/div&gt;&lt;div style=&quot;font-size: 10px&quot;&gt;2.创建客户&lt;/div&gt;&lt;div style=&quot;font-size: 10px&quot;&gt;3.修改修改&lt;/div&gt;&lt;div style=&quot;font-size: 10px&quot;&gt;4.删除客户[?]&lt;/div&gt;&lt;/div&gt;&lt;div&gt;5.客户详情&lt;/div&gt;&lt;/div&gt;&lt;div&gt;6.Excel&lt;span&gt;批量导入&lt;/span&gt;&lt;br&gt;&lt;div&gt;7.导出Excel&lt;/div&gt;&lt;/div&gt;&lt;div&gt;&lt;br&gt;&lt;/div&gt;&lt;div&gt;&lt;div&gt;&lt;div&gt;&lt;div style=&quot;font-size: 10px&quot;&gt;&lt;b&gt;定单管理管理&lt;/b&gt;&lt;/div&gt;&lt;div style=&quot;font-size: 10px&quot;&gt;1.定单列表&lt;/div&gt;&lt;div style=&quot;font-size: 10px&quot;&gt;2.创建定单&lt;/div&gt;&lt;div style=&quot;font-size: 10px&quot;&gt;3.修改定单&lt;/div&gt;&lt;div style=&quot;font-size: 10px&quot;&gt;4.删除定单[?]&lt;/div&gt;&lt;/div&gt;&lt;div&gt;5.定单详情&lt;/div&gt;&lt;/div&gt;&lt;div&gt;6.Excel批量导入&lt;br&gt;&lt;div&gt;7.导出Excel&lt;/div&gt;&lt;/div&gt;&lt;/div&gt;&lt;div&gt;&lt;br&gt;&lt;/div&gt;&lt;/font&gt;&lt;div style=&quot;font-size: 10px&quot;&gt;&lt;div&gt;&lt;b&gt;审批流&lt;/b&gt;&lt;/div&gt;&lt;div&gt;1.审批流程列表&lt;/div&gt;&lt;div&gt;&lt;span&gt;2.&lt;/span&gt;&lt;span&gt;创建审批流&lt;/span&gt;&lt;/div&gt;&lt;div&gt;&lt;span&gt;3.修改审批流&lt;/span&gt;&lt;/div&gt;&lt;div&gt;&lt;span&gt;4.删除审批流&lt;/span&gt;&lt;/div&gt;&lt;/div&gt;&lt;div&gt;&lt;br&gt;&lt;/div&gt;" style="rounded=0;whiteSpace=wrap;html=1;shadow=0;labelBackgroundColor=none;strokeColor=#e8edf0;strokeWidth=5;fillColor=#ffffff;fontSize=12;fontColor=#2F5B7C;align=left;verticalAlign=top;spacing=30;" parent="1" vertex="1">
          <mxGeometry x="279" y="726" width="178" height="901" as="geometry" />
        </mxCell>
        <mxCell id="9WE2LjUBCUQwaZqSCd7z-25" value="&lt;div style=&quot;font-size: 26px&quot;&gt;流程图&lt;/div&gt;&lt;div&gt;&lt;br&gt;&lt;/div&gt;&lt;div&gt;&lt;br&gt;&lt;/div&gt;&lt;div style=&quot;font-size: 10px&quot;&gt;&lt;br&gt;&lt;/div&gt;" style="rounded=0;whiteSpace=wrap;html=1;shadow=0;labelBackgroundColor=none;strokeColor=#e8edf0;strokeWidth=5;fillColor=#ffffff;fontSize=12;fontColor=#2F5B7C;align=left;verticalAlign=top;spacing=30;" parent="1" vertex="1">
          <mxGeometry x="457" y="726" width="896" height="900" as="geometry" />
        </mxCell>
        <mxCell id="9WE2LjUBCUQwaZqSCd7z-26" value="&lt;div&gt;&lt;font style=&quot;font-size: 26px&quot;&gt;Customer Segments&lt;/font&gt;&lt;/div&gt;&lt;div&gt;&lt;br&gt;&lt;/div&gt;&lt;div&gt;For whom are we creating value?&lt;/div&gt;&lt;div&gt;Who are our most important customers?&lt;/div&gt;&lt;div&gt;&lt;br&gt;&lt;/div&gt;&lt;div style=&quot;font-size: 10px&quot;&gt;&lt;font style=&quot;font-size: 10px&quot;&gt;Mass Market&lt;/font&gt;&lt;/div&gt;&lt;div style=&quot;font-size: 10px&quot;&gt;&lt;font style=&quot;font-size: 10px&quot;&gt;Niche Market&lt;/font&gt;&lt;/div&gt;&lt;div style=&quot;font-size: 10px&quot;&gt;&lt;font style=&quot;font-size: 10px&quot;&gt;Segmented&lt;/font&gt;&lt;/div&gt;&lt;div style=&quot;font-size: 10px&quot;&gt;&lt;font style=&quot;font-size: 10px&quot;&gt;Diversified&lt;/font&gt;&lt;/div&gt;&lt;div style=&quot;font-size: 10px&quot;&gt;&lt;font style=&quot;font-size: 10px&quot;&gt;Multi-sided Platform&lt;/font&gt;&lt;/div&gt;" style="rounded=0;whiteSpace=wrap;html=1;shadow=0;labelBackgroundColor=none;strokeColor=#e8edf0;strokeWidth=5;fillColor=#ffffff;fontSize=12;fontColor=#2F5B7C;align=left;verticalAlign=top;spacing=30;" parent="1" vertex="1">
          <mxGeometry x="1780" y="726" width="420" height="900" as="geometry" />
        </mxCell>
        <mxCell id="9WE2LjUBCUQwaZqSCd7z-27" value="&lt;div&gt;&lt;font style=&quot;font-size: 26px&quot;&gt;Channels&lt;/font&gt;&lt;/div&gt;&lt;div&gt;&lt;br&gt;&lt;/div&gt;&lt;div&gt;Through which Channels do our Customer Segments&lt;/div&gt;&lt;div&gt;want to be reached?&lt;/div&gt;&lt;div&gt;How are we reaching them now?&lt;/div&gt;&lt;div&gt;How are our Channels integrated?&lt;/div&gt;&lt;div&gt;Which ones work best?&lt;/div&gt;&lt;div&gt;Which ones are most cost-efficient?&lt;/div&gt;&lt;div&gt;How are we integrating them with customer routines?&lt;/div&gt;&lt;div&gt;&lt;br&gt;&lt;/div&gt;&lt;div style=&quot;font-size: 10px&quot;&gt;&lt;font style=&quot;font-size: 10px&quot;&gt;&lt;b&gt;Channel phases&lt;/b&gt;&lt;/font&gt;&lt;/div&gt;&lt;div style=&quot;font-size: 10px&quot;&gt;&lt;font style=&quot;font-size: 10px&quot;&gt;1. Awareness&lt;/font&gt;&lt;/div&gt;&lt;div style=&quot;font-size: 10px&quot;&gt;&lt;font style=&quot;font-size: 10px&quot;&gt;&amp;nbsp; &amp;nbsp; How do we raise awareness about our company’s products and services?&lt;/font&gt;&lt;/div&gt;&lt;div style=&quot;font-size: 10px&quot;&gt;&lt;font style=&quot;font-size: 10px&quot;&gt;2. Evaluation&lt;/font&gt;&lt;/div&gt;&lt;div style=&quot;font-size: 10px&quot;&gt;&lt;font style=&quot;font-size: 10px&quot;&gt;&amp;nbsp; &amp;nbsp; How do we help customers evaluate our organization’s Value Proposition?&lt;/font&gt;&lt;/div&gt;&lt;div style=&quot;font-size: 10px&quot;&gt;&lt;font style=&quot;font-size: 10px&quot;&gt;3. Purchase&lt;/font&gt;&lt;/div&gt;&lt;div style=&quot;font-size: 10px&quot;&gt;&lt;font style=&quot;font-size: 10px&quot;&gt;&amp;nbsp; &amp;nbsp; How do we allow customers to purchase specific products and services?&lt;/font&gt;&lt;/div&gt;&lt;div style=&quot;font-size: 10px&quot;&gt;&lt;font style=&quot;font-size: 10px&quot;&gt;4. Delivery&lt;/font&gt;&lt;/div&gt;&lt;div style=&quot;font-size: 10px&quot;&gt;&lt;font style=&quot;font-size: 10px&quot;&gt;&amp;nbsp; &amp;nbsp; How do we deliver a Value Proposition to customers?&lt;/font&gt;&lt;/div&gt;&lt;div style=&quot;font-size: 10px&quot;&gt;&lt;font style=&quot;font-size: 10px&quot;&gt;5. After sales&lt;/font&gt;&lt;/div&gt;&lt;div style=&quot;font-size: 10px&quot;&gt;&lt;font style=&quot;font-size: 10px&quot;&gt;&amp;nbsp; &amp;nbsp; How do we provide post-purchase customer support?&lt;/font&gt;&lt;/div&gt;&lt;div style=&quot;font-size: 10px&quot;&gt;&lt;br&gt;&lt;/div&gt;" style="rounded=0;whiteSpace=wrap;html=1;shadow=0;labelBackgroundColor=none;strokeColor=#e8edf0;strokeWidth=5;fillColor=#ffffff;fontSize=12;fontColor=#2F5B7C;align=left;verticalAlign=top;spacing=30;" parent="1" vertex="1">
          <mxGeometry x="1360" y="1176" width="420" height="450" as="geometry" />
        </mxCell>
        <mxCell id="9WE2LjUBCUQwaZqSCd7z-28" value="&lt;div style=&quot;font-size: 26px&quot;&gt;&lt;font style=&quot;font-size: 26px&quot;&gt;Cost Structure&lt;/font&gt;&lt;/div&gt;&lt;div&gt;&lt;br&gt;&lt;/div&gt;&lt;div&gt;What are the most important costs inherent in our business model?&lt;/div&gt;&lt;div&gt;Which Key Resources are most expensive?&lt;/div&gt;&lt;div&gt;Which Key Activities are most expensive?&lt;/div&gt;&lt;div&gt;&lt;br&gt;&lt;/div&gt;&lt;div style=&quot;font-size: 10px&quot;&gt;&lt;font style=&quot;font-size: 10px&quot;&gt;&lt;b&gt;Is your business more&lt;/b&gt;&lt;/font&gt;&lt;/div&gt;&lt;div style=&quot;font-size: 10px&quot;&gt;&lt;font style=&quot;font-size: 10px&quot;&gt;Cost Driven (leanest cost structure, low price value proposition, maximum automation, extensive outsourcing)&lt;/font&gt;&lt;/div&gt;&lt;div style=&quot;font-size: 10px&quot;&gt;&lt;font style=&quot;font-size: 10px&quot;&gt;Value Driven ( focused on value creation, premium value proposition)&lt;/font&gt;&lt;/div&gt;&lt;div style=&quot;font-size: 10px&quot;&gt;&lt;font style=&quot;font-size: 10px&quot;&gt;&lt;br&gt;&lt;/font&gt;&lt;/div&gt;&lt;div style=&quot;font-size: 10px&quot;&gt;&lt;font style=&quot;font-size: 10px&quot;&gt;&lt;b&gt;Sample characteristics&lt;/b&gt;&lt;/font&gt;&lt;/div&gt;&lt;div style=&quot;font-size: 10px&quot;&gt;&lt;font style=&quot;font-size: 10px&quot;&gt;Fixed Costs (salaries, rents, utilities)&lt;/font&gt;&lt;/div&gt;&lt;div style=&quot;font-size: 10px&quot;&gt;&lt;font style=&quot;font-size: 10px&quot;&gt;Variable costs&lt;/font&gt;&lt;/div&gt;&lt;div style=&quot;font-size: 10px&quot;&gt;&lt;font style=&quot;font-size: 10px&quot;&gt;Economies of scale&lt;/font&gt;&lt;/div&gt;&lt;div style=&quot;font-size: 10px&quot;&gt;&lt;font style=&quot;font-size: 10px&quot;&gt;Economies of scope&lt;/font&gt;&lt;/div&gt;" style="rounded=0;whiteSpace=wrap;html=1;shadow=0;labelBackgroundColor=none;strokeColor=#e8edf0;strokeWidth=5;fillColor=#ffffff;fontSize=12;fontColor=#2F5B7C;align=left;verticalAlign=top;spacing=30;" parent="1" vertex="1">
          <mxGeometry x="100" y="1626" width="1050" height="330" as="geometry" />
        </mxCell>
        <mxCell id="9WE2LjUBCUQwaZqSCd7z-29" value="&lt;div style=&quot;font-size: 26px&quot;&gt;&lt;font style=&quot;font-size: 26px&quot;&gt;Revenue Streams&lt;/font&gt;&lt;/div&gt;&lt;div&gt;&lt;br&gt;&lt;/div&gt;&lt;div&gt;For what value are our customers really willing to pay?&lt;/div&gt;&lt;div&gt;For what do they currently pay?&lt;/div&gt;&lt;div&gt;How are they currently paying?&lt;/div&gt;&lt;div&gt;How would they prefer to pay?&lt;/div&gt;&lt;div&gt;How much does each Revenue Stream contribute to overall revenues?&lt;/div&gt;" style="rounded=0;whiteSpace=wrap;html=1;shadow=0;labelBackgroundColor=none;strokeColor=#e8edf0;strokeWidth=5;fillColor=#ffffff;fontSize=12;fontColor=#2F5B7C;align=left;verticalAlign=top;spacing=30;" parent="1" vertex="1">
          <mxGeometry x="1150" y="1626" width="1050" height="330" as="geometry" />
        </mxCell>
        <mxCell id="9WE2LjUBCUQwaZqSCd7z-30" value="信息化系统" style="text;html=1;resizable=0;points=[];autosize=1;align=left;verticalAlign=top;spacingTop=-4;fontSize=60;fontColor=#2F5B7C;" parent="1" vertex="1">
          <mxGeometry x="100" y="616" width="310" height="72" as="geometry" />
        </mxCell>
        <mxCell id="9WE2LjUBCUQwaZqSCd7z-33" value="" style="html=1;verticalLabelPosition=bottom;labelBackgroundColor=#ffffff;verticalAlign=top;strokeWidth=3;strokeColor=none;fillColor=#2F5B7C;shadow=0;dashed=0;shape=mxgraph.ios7.icons.heart;fontSize=12;fontColor=#2F5B7C;align=left;" parent="1" vertex="1">
          <mxGeometry x="1715.0000000000005" y="748" width="41" height="36" as="geometry" />
        </mxCell>
        <mxCell id="9WE2LjUBCUQwaZqSCd7z-34" value="&lt;div style=&quot;font-size: 10px&quot;&gt;&lt;b&gt;Dynamic pricing&lt;/b&gt;&lt;/div&gt;&lt;div style=&quot;font-size: 10px&quot;&gt;Negotiation( bargaining)&lt;/div&gt;&lt;div style=&quot;font-size: 10px&quot;&gt;Yield Management&lt;/div&gt;&lt;div style=&quot;font-size: 10px&quot;&gt;Real-time-Market&lt;/div&gt;" style="text;html=1;resizable=0;points=[];autosize=1;align=left;verticalAlign=top;spacingTop=-4;fontSize=10;fontColor=#2F5B7C;" parent="1" vertex="1">
          <mxGeometry x="1504.5" y="1792" width="120" height="50" as="geometry" />
        </mxCell>
        <mxCell id="9WE2LjUBCUQwaZqSCd7z-35" value="&lt;div style=&quot;font-size: 10px&quot;&gt;&lt;b&gt;Fixed pricing&lt;/b&gt;&lt;/div&gt;&lt;div style=&quot;font-size: 10px&quot;&gt;List Price&lt;/div&gt;&lt;div style=&quot;font-size: 10px&quot;&gt;Product feature dependent&lt;/div&gt;&lt;div style=&quot;font-size: 10px&quot;&gt;Customer segment dependent&lt;/div&gt;&lt;div style=&quot;font-size: 10px&quot;&gt;Volume dependent&lt;/div&gt;" style="text;html=1;resizable=0;points=[];autosize=1;align=left;verticalAlign=top;spacingTop=-4;fontSize=10;fontColor=#2F5B7C;" parent="1" vertex="1">
          <mxGeometry x="1325.5" y="1792" width="150" height="60" as="geometry" />
        </mxCell>
        <mxCell id="9WE2LjUBCUQwaZqSCd7z-36" value="&lt;div style=&quot;font-size: 10px&quot;&gt;&lt;b&gt;Types&lt;/b&gt;&lt;/div&gt;&lt;div style=&quot;font-size: 10px&quot;&gt;Asset sale&lt;/div&gt;&lt;div style=&quot;font-size: 10px&quot;&gt;Usage fee&lt;/div&gt;&lt;div style=&quot;font-size: 10px&quot;&gt;Subscription Fees&lt;/div&gt;&lt;div style=&quot;font-size: 10px&quot;&gt;Lending/Renting/Leasing&lt;/div&gt;&lt;div style=&quot;font-size: 10px&quot;&gt;Licensing&lt;/div&gt;&lt;div style=&quot;font-size: 10px&quot;&gt;Brokerage fees&lt;/div&gt;&lt;div style=&quot;font-size: 10px&quot;&gt;Advertising&lt;/div&gt;" style="text;html=1;resizable=0;points=[];autosize=1;align=left;verticalAlign=top;spacingTop=-4;fontSize=10;fontColor=#2F5B7C;" parent="1" vertex="1">
          <mxGeometry x="1180" y="1792" width="130" height="100" as="geometry" />
        </mxCell>
        <mxCell id="9WE2LjUBCUQwaZqSCd7z-38" value="" style="shape=mxgraph.signs.transportation.truck_6;html=1;fillColor=#2F5B7C;strokeColor=none;verticalLabelPosition=bottom;verticalAlign=top;align=center;shadow=0;labelBackgroundColor=none;fontSize=10;fontColor=#2F5B7C;aspect=fixed;" parent="1" vertex="1">
          <mxGeometry x="1720" y="1196" width="40" height="50" as="geometry" />
        </mxCell>
        <mxCell id="9WE2LjUBCUQwaZqSCd7z-39" value="" style="shape=image;html=1;verticalAlign=top;verticalLabelPosition=bottom;labelBackgroundColor=#ffffff;imageAspect=0;aspect=fixed;image=https://cdn4.iconfinder.com/data/icons/evil-icons-user-interface/64/price-128.png;shadow=0;strokeColor=#e8edf0;strokeWidth=3;fillColor=#2F5B7C;gradientColor=none;fontSize=10;fontColor=#2F5B7C;align=left;" parent="1" vertex="1">
          <mxGeometry x="1084" y="1646" width="58" height="58" as="geometry" />
        </mxCell>
        <mxCell id="9WE2LjUBCUQwaZqSCd7z-40" value="" style="dashed=0;html=1;shape=mxgraph.aws3.checklist_cost;fillColor=#2F5B7C;gradientColor=none;shadow=0;labelBackgroundColor=none;strokeColor=none;strokeWidth=3;fontSize=10;fontColor=#2F5B7C;align=left;" parent="1" vertex="1">
          <mxGeometry x="2106.5" y="1637.5" width="67.5" height="75" as="geometry" />
        </mxCell>
        <mxCell id="9WE2LjUBCUQwaZqSCd7z-42" value="" style="group" parent="1" vertex="1" connectable="0">
          <mxGeometry x="2106.5" y="751" width="69" height="50" as="geometry" />
        </mxCell>
        <mxCell id="9WE2LjUBCUQwaZqSCd7z-43" value="" style="shadow=0;dashed=0;html=1;strokeColor=#FFFFFF;labelPosition=center;verticalLabelPosition=bottom;verticalAlign=top;outlineConnect=0;shape=mxgraph.office.users.user;fillColor=#2F5B7C;labelBackgroundColor=none;fontSize=10;fontColor=#000000;align=left;strokeWidth=2;" parent="9WE2LjUBCUQwaZqSCd7z-42" vertex="1">
          <mxGeometry x="31" y="-5" width="46" height="50" as="geometry" />
        </mxCell>
        <mxCell id="9WE2LjUBCUQwaZqSCd7z-44" value="" style="shadow=0;dashed=0;html=1;strokeColor=#FFFFFF;labelPosition=center;verticalLabelPosition=bottom;verticalAlign=top;outlineConnect=0;shape=mxgraph.office.users.user;fillColor=#2F5B7C;labelBackgroundColor=none;fontSize=10;fontColor=#000000;align=left;strokeWidth=2;" parent="9WE2LjUBCUQwaZqSCd7z-42" vertex="1">
          <mxGeometry width="46" height="50" as="geometry" />
        </mxCell>
        <mxCell id="RI6yCuHlefNPRBmFJ0M_-5" style="edgeStyle=orthogonalEdgeStyle;rounded=0;orthogonalLoop=1;jettySize=auto;html=1;exitX=0.5;exitY=0.5;exitDx=0;exitDy=0;exitPerimeter=0;" edge="1" parent="1" source="RI6yCuHlefNPRBmFJ0M_-2" target="RI6yCuHlefNPRBmFJ0M_-4">
          <mxGeometry relative="1" as="geometry" />
        </mxCell>
        <mxCell id="RI6yCuHlefNPRBmFJ0M_-2" value="客户经理" style="shape=umlActor;verticalLabelPosition=bottom;labelBackgroundColor=#ffffff;verticalAlign=top;html=1;outlineConnect=0;" vertex="1" parent="1">
          <mxGeometry x="-1319" y="-359" width="30" height="60" as="geometry" />
        </mxCell>
        <mxCell id="RI6yCuHlefNPRBmFJ0M_-9" style="edgeStyle=orthogonalEdgeStyle;rounded=0;orthogonalLoop=1;jettySize=auto;html=1;exitX=1;exitY=0.25;exitDx=0;exitDy=0;entryX=0;entryY=0.5;entryDx=0;entryDy=0;startArrow=classic;startFill=1;" edge="1" parent="1" source="RI6yCuHlefNPRBmFJ0M_-4" target="RI6yCuHlefNPRBmFJ0M_-6">
          <mxGeometry relative="1" as="geometry" />
        </mxCell>
        <mxCell id="RI6yCuHlefNPRBmFJ0M_-10" style="edgeStyle=orthogonalEdgeStyle;rounded=0;orthogonalLoop=1;jettySize=auto;html=1;exitX=1;exitY=0.5;exitDx=0;exitDy=0;startArrow=classic;startFill=1;" edge="1" parent="1" source="RI6yCuHlefNPRBmFJ0M_-4" target="RI6yCuHlefNPRBmFJ0M_-7">
          <mxGeometry relative="1" as="geometry" />
        </mxCell>
        <mxCell id="RI6yCuHlefNPRBmFJ0M_-11" style="edgeStyle=orthogonalEdgeStyle;rounded=0;orthogonalLoop=1;jettySize=auto;html=1;exitX=1;exitY=0.75;exitDx=0;exitDy=0;entryX=0;entryY=0.5;entryDx=0;entryDy=0;startArrow=classic;startFill=1;" edge="1" parent="1" source="RI6yCuHlefNPRBmFJ0M_-4" target="RI6yCuHlefNPRBmFJ0M_-8">
          <mxGeometry relative="1" as="geometry" />
        </mxCell>
        <mxCell id="RI6yCuHlefNPRBmFJ0M_-27" style="edgeStyle=orthogonalEdgeStyle;rounded=0;orthogonalLoop=1;jettySize=auto;html=1;exitX=1;exitY=1;exitDx=0;exitDy=0;entryX=0;entryY=0.5;entryDx=0;entryDy=0;startArrow=classic;startFill=1;" edge="1" parent="1" source="RI6yCuHlefNPRBmFJ0M_-4" target="RI6yCuHlefNPRBmFJ0M_-26">
          <mxGeometry relative="1" as="geometry" />
        </mxCell>
        <mxCell id="RI6yCuHlefNPRBmFJ0M_-4" value="小程序" style="whiteSpace=wrap;html=1;aspect=fixed;" vertex="1" parent="1">
          <mxGeometry x="-1221" y="-369" width="80" height="80" as="geometry" />
        </mxCell>
        <mxCell id="RI6yCuHlefNPRBmFJ0M_-13" style="edgeStyle=orthogonalEdgeStyle;rounded=0;orthogonalLoop=1;jettySize=auto;html=1;exitX=1;exitY=0.5;exitDx=0;exitDy=0;entryX=0;entryY=0.25;entryDx=0;entryDy=0;startArrow=classic;startFill=1;" edge="1" parent="1" source="RI6yCuHlefNPRBmFJ0M_-6" target="RI6yCuHlefNPRBmFJ0M_-12">
          <mxGeometry relative="1" as="geometry" />
        </mxCell>
        <mxCell id="RI6yCuHlefNPRBmFJ0M_-6" value="客户信息" style="rounded=0;whiteSpace=wrap;html=1;" vertex="1" parent="1">
          <mxGeometry x="-1073" y="-395" width="70" height="36" as="geometry" />
        </mxCell>
        <mxCell id="RI6yCuHlefNPRBmFJ0M_-14" style="edgeStyle=orthogonalEdgeStyle;rounded=0;orthogonalLoop=1;jettySize=auto;html=1;exitX=1;exitY=0.5;exitDx=0;exitDy=0;startArrow=classic;startFill=1;" edge="1" parent="1" source="RI6yCuHlefNPRBmFJ0M_-7" target="RI6yCuHlefNPRBmFJ0M_-12">
          <mxGeometry relative="1" as="geometry" />
        </mxCell>
        <mxCell id="RI6yCuHlefNPRBmFJ0M_-7" value="定单信息" style="rounded=0;whiteSpace=wrap;html=1;" vertex="1" parent="1">
          <mxGeometry x="-1073" y="-347" width="70" height="36" as="geometry" />
        </mxCell>
        <mxCell id="RI6yCuHlefNPRBmFJ0M_-15" style="edgeStyle=orthogonalEdgeStyle;rounded=0;orthogonalLoop=1;jettySize=auto;html=1;exitX=1;exitY=0.5;exitDx=0;exitDy=0;entryX=0;entryY=0.75;entryDx=0;entryDy=0;startArrow=classic;startFill=1;" edge="1" parent="1" source="RI6yCuHlefNPRBmFJ0M_-8" target="RI6yCuHlefNPRBmFJ0M_-12">
          <mxGeometry relative="1" as="geometry" />
        </mxCell>
        <mxCell id="RI6yCuHlefNPRBmFJ0M_-8" value="拜访记录" style="rounded=0;whiteSpace=wrap;html=1;" vertex="1" parent="1">
          <mxGeometry x="-1073" y="-299" width="70" height="36" as="geometry" />
        </mxCell>
        <mxCell id="RI6yCuHlefNPRBmFJ0M_-17" style="edgeStyle=orthogonalEdgeStyle;rounded=0;orthogonalLoop=1;jettySize=auto;html=1;exitX=1;exitY=0.5;exitDx=0;exitDy=0;startArrow=classic;startFill=1;" edge="1" parent="1" source="RI6yCuHlefNPRBmFJ0M_-12" target="RI6yCuHlefNPRBmFJ0M_-16">
          <mxGeometry relative="1" as="geometry" />
        </mxCell>
        <mxCell id="RI6yCuHlefNPRBmFJ0M_-12" value="产品管理系统" style="whiteSpace=wrap;html=1;aspect=fixed;" vertex="1" parent="1">
          <mxGeometry x="-940" y="-369" width="80" height="80" as="geometry" />
        </mxCell>
        <mxCell id="RI6yCuHlefNPRBmFJ0M_-19" style="edgeStyle=orthogonalEdgeStyle;rounded=0;orthogonalLoop=1;jettySize=auto;html=1;exitX=1;exitY=0.5;exitDx=0;exitDy=0;startArrow=classic;startFill=1;" edge="1" parent="1" source="RI6yCuHlefNPRBmFJ0M_-16" target="RI6yCuHlefNPRBmFJ0M_-18">
          <mxGeometry relative="1" as="geometry" />
        </mxCell>
        <mxCell id="RI6yCuHlefNPRBmFJ0M_-16" value="审批机制" style="shape=process;whiteSpace=wrap;html=1;backgroundOutline=1;" vertex="1" parent="1">
          <mxGeometry x="-797" y="-347" width="70" height="36" as="geometry" />
        </mxCell>
        <mxCell id="RI6yCuHlefNPRBmFJ0M_-18" value="存档" style="shape=process;whiteSpace=wrap;html=1;backgroundOutline=1;" vertex="1" parent="1">
          <mxGeometry x="-664" y="-347" width="70" height="36" as="geometry" />
        </mxCell>
        <mxCell id="RI6yCuHlefNPRBmFJ0M_-23" style="edgeStyle=orthogonalEdgeStyle;rounded=0;orthogonalLoop=1;jettySize=auto;html=1;exitX=0;exitY=0.5;exitDx=0;exitDy=0;entryX=0;entryY=0.5;entryDx=0;entryDy=0;startArrow=classic;startFill=1;" edge="1" parent="1" source="RI6yCuHlefNPRBmFJ0M_-20" target="RI6yCuHlefNPRBmFJ0M_-6">
          <mxGeometry relative="1" as="geometry" />
        </mxCell>
        <mxCell id="RI6yCuHlefNPRBmFJ0M_-24" style="edgeStyle=orthogonalEdgeStyle;rounded=0;orthogonalLoop=1;jettySize=auto;html=1;exitX=0;exitY=0.25;exitDx=0;exitDy=0;entryX=0;entryY=0.5;entryDx=0;entryDy=0;startArrow=classic;startFill=1;" edge="1" parent="1" source="RI6yCuHlefNPRBmFJ0M_-20" target="RI6yCuHlefNPRBmFJ0M_-7">
          <mxGeometry relative="1" as="geometry" />
        </mxCell>
        <mxCell id="RI6yCuHlefNPRBmFJ0M_-25" style="edgeStyle=orthogonalEdgeStyle;rounded=0;orthogonalLoop=1;jettySize=auto;html=1;exitX=0;exitY=0.75;exitDx=0;exitDy=0;entryX=0;entryY=0.5;entryDx=0;entryDy=0;startArrow=classic;startFill=1;" edge="1" parent="1" source="RI6yCuHlefNPRBmFJ0M_-20" target="RI6yCuHlefNPRBmFJ0M_-8">
          <mxGeometry relative="1" as="geometry" />
        </mxCell>
        <mxCell id="RI6yCuHlefNPRBmFJ0M_-29" style="edgeStyle=orthogonalEdgeStyle;rounded=0;orthogonalLoop=1;jettySize=auto;html=1;exitX=0;exitY=1;exitDx=0;exitDy=0;entryX=0;entryY=0.5;entryDx=0;entryDy=0;startArrow=classic;startFill=1;" edge="1" parent="1" source="RI6yCuHlefNPRBmFJ0M_-20" target="RI6yCuHlefNPRBmFJ0M_-26">
          <mxGeometry relative="1" as="geometry" />
        </mxCell>
        <mxCell id="RI6yCuHlefNPRBmFJ0M_-20" value="WEB" style="whiteSpace=wrap;html=1;aspect=fixed;" vertex="1" parent="1">
          <mxGeometry x="-1076" y="-488" width="80" height="80" as="geometry" />
        </mxCell>
        <mxCell id="RI6yCuHlefNPRBmFJ0M_-22" style="edgeStyle=orthogonalEdgeStyle;rounded=0;orthogonalLoop=1;jettySize=auto;html=1;startArrow=classic;startFill=1;" edge="1" parent="1" source="RI6yCuHlefNPRBmFJ0M_-21" target="RI6yCuHlefNPRBmFJ0M_-20">
          <mxGeometry relative="1" as="geometry" />
        </mxCell>
        <mxCell id="RI6yCuHlefNPRBmFJ0M_-21" value="运维人员" style="shape=umlActor;verticalLabelPosition=bottom;labelBackgroundColor=#ffffff;verticalAlign=top;html=1;outlineConnect=0;" vertex="1" parent="1">
          <mxGeometry x="-1051" y="-605" width="30" height="60" as="geometry" />
        </mxCell>
        <mxCell id="RI6yCuHlefNPRBmFJ0M_-28" style="edgeStyle=orthogonalEdgeStyle;rounded=0;orthogonalLoop=1;jettySize=auto;html=1;exitX=1;exitY=0.25;exitDx=0;exitDy=0;entryX=0;entryY=1;entryDx=0;entryDy=0;startArrow=classic;startFill=1;" edge="1" parent="1" source="RI6yCuHlefNPRBmFJ0M_-26" target="RI6yCuHlefNPRBmFJ0M_-12">
          <mxGeometry relative="1" as="geometry" />
        </mxCell>
        <mxCell id="RI6yCuHlefNPRBmFJ0M_-26" value="审批" style="rounded=0;whiteSpace=wrap;html=1;" vertex="1" parent="1">
          <mxGeometry x="-1073" y="-251" width="70" height="36" as="geometry" />
        </mxCell>
      </root>
    </mxGraphModel>
  </diagram>
</mxfile>
